<!-- Generated by IcoMoon.io -->
<svg version="1.1" xmlns="http://www.w3.org/2000/svg" width="111" height="32" viewBox="0 0 111 32">
<title>Logo</title>
<path fill="#fff" opacity="0.3" d="M0 0h48.73l12.824 16-12.824 16h-48.73v-32zM21.976 14.368c0.050-0.030 0.082-0.072 0.111-0.111 0.007-0.009 0.014-0.018 0.020-0.027 0.266-0.313 0.531-0.628 0.795-0.944l0.001-0.001c0.532-0.629 1.061-1.259 1.591-1.89 0.106-0.126 0.102-0.184-0.019-0.287-0.095-0.082-0.192-0.162-0.291-0.242-0.841-0.682-1.766-1.215-2.813-1.523-0.699-0.205-1.414-0.317-2.142-0.367-0.949-0.063-1.889-0.032-2.82 0.181-3.262 0.744-5.696 3.419-5.981 6.847-0.076 0.925-0.003 1.841 0.235 2.74 0.544 2.035 1.724 3.594 3.599 4.621 1.021 0.559 2.128 0.855 3.291 0.947 0.985 0.078 1.96 0.019 2.922-0.196 1.627-0.363 3.066-1.097 4.345-2.146 0.102-0.084 0.144-0.167 0.144-0.3-0.004-1.632-0.004-3.265-0.004-4.898l0-1.225c0-0.021-0.001-0.043-0.003-0.064-0.003-0.048-0.007-0.095 0.007-0.139 0.015-0.050-0.012-0.079-0.039-0.108-0.022-0.023-0.044-0.046-0.041-0.080 0.007-0.056-0.031-0.065-0.076-0.065l-6.911 0.001c-0.027 0.001-0.055 0.001-0.081-0.001-0.069-0.007-0.092 0.027-0.087 0.090 0.002 0.026 0.001 0.053 0.001 0.080-0 0.013-0.001 0.026-0.001 0.039 0 0.356-0 0.712-0 1.068v0.007c-0 0.716-0.001 1.433 0 2.149 0 0.030-0.001 0.055-0.001 0.077-0.001 0.066-0.002 0.099 0.015 0.117s0.055 0.017 0.131 0.017c0.019-0 0.041-0 0.065-0h2.718c0.024 0 0.045-0 0.064-0.001 0.075-0.001 0.112-0.001 0.129 0.016 0.017 0.017 0.016 0.050 0.015 0.115-0 0.023-0.001 0.049-0.001 0.081 0.001 0.156 0.001 0.311 0 0.466-0 0.078-0 0.155-0 0.234v0.006c0 0.32 0 0.323-0.293 0.462-0.857 0.406-1.762 0.522-2.697 0.406-1.039-0.128-1.87-0.614-2.479-1.455-0.396-0.547-0.613-1.165-0.694-1.83-0.102-0.849 0.002-1.667 0.391-2.438 0.469-0.926 1.179-1.592 2.199-1.897 0.715-0.215 1.439-0.159 2.155-0.003 0.649 0.14 1.215 0.454 1.736 0.848 0.191 0.143 0.377 0.292 0.565 0.444 0.075 0.060 0.15 0.12 0.226 0.181zM40.98 11.093c-1.601-1.443-3.509-2.131-5.481-2.146-0.911 0.002-1.591 0.075-2.313 0.261-2.095 0.541-3.734 1.701-4.823 3.553-1.118 1.9-1.345 3.939-0.72 6.035 0.699 2.344 2.19 4.050 4.496 5 1.771 0.728 3.606 0.826 5.457 0.345 2.15-0.558 3.798-1.791 4.879-3.715 0.911-1.622 1.155-3.362 0.815-5.179-0.305-1.633-1.066-3.031-2.309-4.154zM35.031 12.848c2.195-0.005 3.63 1.218 4.022 2.914 0.237 1.022 0.132 2.015-0.376 2.943-0.597 1.090-1.529 1.725-2.782 1.866-1.212 0.138-2.27-0.201-3.134-1.064-0.554-0.553-0.888-1.227-1.030-1.987-0.18-0.964-0.069-1.897 0.405-2.762 0.698-1.274 1.813-1.885 2.895-1.909z"></path>
<path fill="#fff" opacity="0.3" d="M61.554 0h48.992v32h-48.992v-32zM78.002 16.398v7.214c0 0.015 0 0.031 0.001 0.046 0.001 0.030 0.001 0.061-0.001 0.090-0.007 0.084 0.016 0.133 0.113 0.119 0.023-0.002 0.046-0.002 0.069-0.001 0.012 0 0.023 0.001 0.035 0.001 0.409 0 0.818 0 1.228 0h0.003c0.818 0 1.636 0.001 2.455-0 0.026 0 0.049 0 0.069 0.001 0.079 0.001 0.117 0.001 0.135-0.017s0.017-0.053 0.015-0.121c-0-0.012-0.001-0.025-0.001-0.039s-0-0.027-0-0.042v-14.48l-0-0.017-0.001-0.017c-0.001-0.023-0.001-0.046 0.001-0.068 0.009-0.085-0.021-0.13-0.114-0.119-0.018 0.002-0.038 0.002-0.057 0.001-0.010-0-0.020-0.001-0.030-0.001-0.413 0-0.826-0-1.24-0-0.827-0-1.654-0.001-2.481 0-0.009 0-0.018-0-0.026-0-0.014-0-0.027-0-0.039-0-0.068-0.001-0.102-0.002-0.119 0.015s-0.017 0.051-0.016 0.12c0 0.019 0.001 0.041 0.001 0.067v7.248zM98.524 8.949h-6.148c-2.047 0-4.095 0-6.14-0.002-0.016 0-0.031 0-0.046 0-0.031 0-0.061 0.001-0.092-0-0.069-0.003-0.094 0.029-0.088 0.092 0.001 0.019 0.001 0.038 0 0.057-0 0.009-0 0.019-0 0.029v3.463c0 0.099-0.003 0.144 0.018 0.165s0.069 0.016 0.171 0.016h3.861c0.126 0 0.188 0 0.219 0.031s0.031 0.090 0.031 0.208v10.677c0 0.098-0.006 0.144 0.014 0.165s0.067 0.018 0.171 0.018h3.705c0.116 0 0.173 0 0.202-0.028s0.028-0.083 0.028-0.194v-10.677c0-0.108-0.007-0.157 0.015-0.18s0.074-0.018 0.191-0.018h3.93c0.17 0 0.17 0 0.171-0.165v-3.446c0-0.119 0.007-0.171-0.017-0.194s-0.076-0.016-0.194-0.016z"></path>
</svg>
